ffmpeg version 3.1.3 Copyright (c) 2000-2016 the FFmpeg developers
  built with Apple LLVM version 7.3.0 (clang-703.0.31)
  configuration: --prefix=/usr/local/Cellar/ffmpeg/3.1.3 --enable-shared --enable-pthreads --enable-gpl --enable-version3 --enable-hardcoded-tables --enable-avresample --cc=clang --host-cflags= --host-ldflags= --enable-opencl --enable-libx264 --enable-libmp3lame --enable-libxvid --disable-lzma --enable-vda
  libavutil      55. 28.100 / 55. 28.100
  libavcodec     57. 48.101 / 57. 48.101
  libavformat    57. 41.100 / 57. 41.100
  libavdevice    57.  0.101 / 57.  0.101
  libavfilter     6. 47.100 /  6. 47.100
  libavresample   3.  0.  0 /  3.  0.  0
  libswscale      4.  1.100 /  4.  1.100
  libswresample   2.  1.100 /  2.  1.100
  libpostproc    54.  0.100 / 54.  0.100
[image2pipe @ 0x7fdefc001000] Stream #0: not enough frames to estimate rate; consider increasing probesize
Input #0, image2pipe, from 'pipe:':
  Duration: N/A, bitrate: N/A
    Stream #0:0: Video: ppm, rgb24, 1920x1200, 120 tbr, 120 tbn, 120 tbc
[libx264 @ 0x7fdefc801800] using cpu capabilities: MMX2 SSE2Fast SSSE3 SSE4.2 AVX
[libx264 @ 0x7fdefc801800] profile High, level 5.2
[libx264 @ 0x7fdefc801800] 264 - core 148 r2668 fd2c324 - H.264/MPEG-4 AVC codec - Copyleft 2003-2016 - http://www.videolan.org/x264.html - options: cabac=1 ref=3 deblock=1:0:0 analyse=0x3:0x113 me=hex subme=7 psy=1 psy_rd=1.00:0.00 mixed_ref=1 me_range=16 chroma_me=1 trellis=1 8x8dct=1 cqm=0 deadzone=21,11 fast_pskip=1 chroma_qp_offset=-2 threads=6 lookahead_threads=1 sliced_threads=0 nr=0 decimate=1 interlaced=0 bluray_compat=0 constrained_intra=0 bframes=3 b_pyramid=2 b_adapt=1 b_bias=0 direct=1 weightb=1 open_gop=0 weightp=2 keyint=250 keyint_min=25 scenecut=40 intra_refresh=0 rc_lookahead=40 rc=abr mbtree=1 bitrate=12000 ratetol=1.0 qcomp=0.60 qpmin=0 qpmax=69 qpstep=4 ip_ratio=1.40 aq=1:1.00
[mp4 @ 0x7fdefc802400] Using AVStream.codec to pass codec parameters to muxers is deprecated, use AVStream.codecpar instead.
Output #0, mp4, to './mission_records/a9c5b7bf-a1c2-415f-8fe9-3503c85873ba/video.mp4':
  Metadata:
    encoder         : Lavf57.41.100
    Stream #0:0: Video: h264 (libx264) ([33][0][0][0] / 0x0021), yuv420p, 1920x1200, q=-1--1, 12000 kb/s, 120 fps, 15360 tbn, 120 tbc
    Metadata:
      encoder         : Lavc57.48.101 libx264
    Side data:
      cpb: bitrate max/min/avg: 0/0/12000000 buffer size: 0 vbv_delay: -1
Stream mapping:
  Stream #0:0 -> #0:0 (ppm (native) -> h264 (libx264))
frame=    8 fps=0.0 q=0.0 size=       0kB time=00:00:00.00 bitrate=N/A speed=   0x    frame=   14 fps= 14 q=0.0 size=       0kB time=00:00:00.00 bitrate=N/A speed=   0x    frame=   20 fps= 13 q=0.0 size=       0kB time=00:00:00.00 bitrate=N/A speed=   0x    frame=   26 fps= 12 q=0.0 size=       0kB time=00:00:00.00 bitrate=N/A speed=   0x    frame=   33 fps= 12 q=0.0 size=       0kB time=00:00:00.00 bitrate=N/A speed=   0x    frame=   41 fps= 13 q=0.0 size=       0kB time=00:00:00.00 bitrate=N/A speed=   0x    frame=   47 fps= 12 q=0.0 size=       0kB time=00:00:00.00 bitrate=N/A speed=   0x    frame=   53 fps= 12 q=31.0 size=      42kB time=00:00:00.00 bitrate=5329723.1kbits/s speed=1.48e-05x    frame=   60 fps= 12 q=32.0 size=      89kB time=00:00:00.05 bitrate=12436.6kbits/s speed=0.0118x    frame=   66 fps= 12 q=29.0 size=      96kB time=00:00:00.10 bitrate=7285.1kbits/s speed=0.0198x    frame=   71 fps= 12 q=27.0 size=     126kB time=00:00:00.15 bitrate=6868.8kbits/s speed=0.025x    frame=   77 fps= 12 q=25.0 size=     155kB time=00:00:00.20 bitrate=6343.1kbits/s speed=0.0307x    frame=   83 fps= 12 q=25.0 size=     178kB time=00:00:00.25 bitrate=5820.0kbits/s speed=0.0355x    frame=   88 fps= 12 q=23.0 size=     192kB time=00:00:00.29 bitrate=5401.8kbits/s speed=0.0387x    frame=   94 fps= 12 q=22.0 size=     217kB time=00:00:00.34 bitrate=5192.6kbits/s speed=0.0424x    frame=  100 fps= 12 q=21.0 size=     225kB time=00:00:00.39 bitrate=4708.0kbits/s speed=0.0458x    frame=  106 fps= 12 q=20.0 size=     232kB time=00:00:00.44 bitrate=4299.7kbits/s speed=0.0486x    frame=  112 fps= 11 q=19.0 size=     235kB time=00:00:00.49 bitrate=3922.2kbits/s speed=0.0505x    frame=  115 fps= 11 q=20.0 size=     500kB time=00:00:00.51 bitrate=7931.5kbits/s speed=0.0499x    frame=  117 fps= 11 q=23.0 size=     747kB time=00:00:00.53 bitrate=11471.3kbits/s speed=0.049x    frame=  120 fps= 10 q=25.0 size=    1086kB time=00:00:00.55 bitrate=15937.3kbits/s speed=0.0484x    frame=  125 fps= 10 q=27.0 size=    1359kB time=00:00:00.60 bitrate=18559.5kbits/s speed=0.0496x    frame=  127 fps= 10 q=28.0 size=    1433kB time=00:00:00.61 bitrate=19039.6kbits/s speed=0.0486x    frame=  131 fps=9.8 q=28.0 size=    1559kB time=00:00:00.65 bitrate=19647.3kbits/s speed=0.0484x    frame=  135 fps=9.7 q=22.0 size=    1632kB time=00:00:00.68 bitrate=19559.7kbits/s speed=0.0491x    frame=  138 fps=9.5 q=29.0 size=    1676kB time=00:00:00.70 bitrate=19386.2kbits/s speed=0.0485x    frame=  141 fps=9.2 q=29.0 size=    1789kB time=00:00:00.73 bitrate=19981.5kbits/s speed=0.0479x    frame=  143 fps=9.0 q=23.0 size=    1818kB time=00:00:00.75 bitrate=19851.2kbits/s speed=0.0474x    frame=  147 fps=9.0 q=30.0 size=    1845kB time=00:00:00.78 bitrate=19296.6kbits/s speed=0.0478x    frame=  152 fps=9.0 q=30.0 size=    1974kB time=00:00:00.82 bitrate=19599.7kbits/s speed=0.0488x    frame=  157 fps=9.0 q=30.0 size=    2030kB time=00:00:00.86 bitrate=19191.2kbits/s speed=0.0494x    frame=  162 fps=9.0 q=30.0 size=    2076kB time=00:00:00.90 bitrate=18719.8kbits/s speed=0.0503x    frame=  167 fps=9.0 q=30.0 size=    2118kB time=00:00:00.95 bitrate=18259.8kbits/s speed=0.051x    frame=  171 fps=8.9 q=30.0 size=    2150kB time=00:00:00.98 bitrate=17910.6kbits/s speed=0.0513x    frame=  175 fps=8.9 q=29.0 size=    2180kB time=00:00:01.01 bitrate=17565.2kbits/s speed=0.0516x    frame=  181 fps=8.9 q=29.0 size=    2243kB time=00:00:01.06 bitrate=17226.1kbits/s speed=0.0525x    frame=  185 fps=8.8 q=30.0 size=    2319kB time=00:00:01.10 bitrate=17272.8kbits/s speed=0.0525x    frame=  189 fps=8.8 q=26.0 size=    2398kB time=00:00:01.13 bitrate=17329.4kbits/s speed=0.0525x    frame=  193 fps=8.7 q=30.0 size=    2466kB time=00:00:01.16 bitrate=17317.4kbits/s speed=0.0524x    frame=  198 fps=8.7 q=30.0 size=    2579kB time=00:00:01.20 bitrate=17486.3kbits/s speed=0.0528x    frame=  202 fps=8.6 q=31.0 size=    2652kB time=00:00:01.24 bitrate=17495.9kbits/s speed=0.0529x    frame=  205 fps=8.6 q=31.0 size=    2708kB time=00:00:01.26 bitrate=17510.4kbits/s speed=0.0529x    frame=  208 fps=8.5 q=31.0 size=    2762kB time=00:00:01.29 bitrate=17519.0kbits/s speed=0.0528x    frame=  212 fps=8.4 q=31.0 size=    2841kB time=00:00:01.32 bitrate=17564.7kbits/s speed=0.0528x    frame=  216 fps=8.4 q=31.0 size=    2896kB time=00:00:01.35 bitrate=17465.4kbits/s speed=0.053x    frame=  220 fps=8.4 q=31.0 size=    2955kB time=00:00:01.39 bitrate=17396.2kbits/s speed=0.0531x    frame=  224 fps=8.4 q=31.0 size=    3008kB time=00:00:01.42 bitrate=17289.0kbits/s speed=0.0533x    frame=  228 fps=8.4 q=32.0 size=    3071kB time=00:00:01.45 bitrate=17248.4kbits/s speed=0.0535x    frame=  232 fps=8.4 q=32.0 size=    3123kB time=00:00:01.49 bitrate=17151.1kbits/s speed=0.0537x    frame=  236 fps=8.3 q=32.0 size=    3180kB time=00:00:01.52 bitrate=17081.0kbits/s speed=0.0539x    frame=  241 fps=8.3 q=32.0 size=    3250kB time=00:00:01.56 bitrate=16994.2kbits/s speed=0.0542x    frame=  245 fps=8.3 q=32.0 size=    3301kB time=00:00:01.60 bitrate=16898.3kbits/s speed=0.0541x    frame=  248 fps=8.2 q=32.0 size=    3373kB time=00:00:01.62 bitrate=17001.1kbits/s speed=0.054x    frame=  252 fps=8.2 q=32.0 size=    3417kB time=00:00:01.65 bitrate=16879.2kbits/s speed=0.0542x    frame=  256 fps=8.2 q=32.0 size=    3492kB time=00:00:01.69 bitrate=16907.7kbits/s speed=0.0541x    frame=  260 fps=8.2 q=32.0 size=    3571kB time=00:00:01.72 bitrate=16958.8kbits/s speed=0.0543x    frame=  264 fps=8.2 q=32.0 size=    3662kB time=00:00:01.75 bitrate=17059.5kbits/s speed=0.0544x    frame=  270 fps=8.2 q=33.0 size=    3768kB time=00:00:01.80 bitrate=17069.4kbits/s speed=0.055x    frame=  275 fps=8.2 q=33.0 size=    3841kB time=00:00:01.85 bitrate=17008.7kbits/s speed=0.0554x    frame=  280 fps=8.2 q=32.0 size=    3869kB time=00:00:01.89 bitrate=16754.3kbits/s speed=0.0557x    frame=  285 fps=8.3 q=32.0 size=    3906kB time=00:00:01.93 bitrate=16549.2kbits/s speed=0.056x    frame=  290 fps=8.3 q=32.0 size=    3940kB time=00:00:01.97 bitrate=16341.3kbits/s speed=0.0563x    frame=  295 fps=8.3 q=32.0 size=    3973kB time=00:00:02.01 bitrate=16136.8kbits/s speed=0.0566x    frame=  300 fps=8.3 q=32.0 size=    3998kB time=00:00:02.05 bitrate=15910.8kbits/s speed=0.0569x    frame=  306 fps=8.3 q=32.0 size=    4024kB time=00:00:02.10 bitrate=15635.4kbits/s speed=0.0575x    frame=  311 fps=8.3 q=32.0 size=    4060kB time=00:00:02.15 bitrate=15469.2kbits/s speed=0.0577x    frame=  316 fps=8.3 q=32.0 size=    4147kB time=00:00:02.19 bitrate=15500.8kbits/s speed=0.0578x    frame=  321 fps=8.3 q=32.0 size=    4221kB time=00:00:02.23 bitrate=15481.2kbits/s speed=0.058x    frame=  326 fps=8.3 q=32.0 size=    4293kB time=00:00:02.27 bitrate=15457.7kbits/s speed=0.0581x    frame=  330 fps=8.3 q=32.0 size=    4350kB time=00:00:02.30 bitrate=15437.4kbits/s speed=0.0581x    frame=  334 fps=8.3 q=32.0 size=    4412kB time=00:00:02.34 bitrate=15434.4kbits/s speed=0.0581x    frame=  338 fps=8.3 q=32.0 size=    4463kB time=00:00:02.37 bitrate=15394.3kbits/s speed=0.0582x    frame=  342 fps=8.3 q=32.0 size=    4525kB time=00:00:02.40 bitrate=15389.8kbits/s speed=0.0582x    frame=  346 fps=8.3 q=32.0 size=    4580kB time=00:00:02.44 bitrate=15366.6kbits/s speed=0.0583x    frame=  351 fps=8.2 q=32.0 size=    4650kB time=00:00:02.48 bitrate=15338.1kbits/s speed=0.0583x    frame=  356 fps=8.3 q=32.0 size=    4712kB time=00:00:02.52 bitrate=15287.7kbits/s speed=0.0585x    frame=  360 fps=8.2 q=32.0 size=    4767kB time=00:00:02.55 bitrate=15262.8kbits/s speed=0.0585x    frame=  364 fps=8.2 q=32.0 size=    4820kB time=00:00:02.59 bitrate=15233.6kbits/s speed=0.0584x    frame=  368 fps=8.2 q=29.0 size=    4876kB time=00:00:02.62 bitrate=15217.7kbits/s speed=0.0584x    frame=  372 fps=8.1 q=32.0 size=    4939kB time=00:00:02.65 bitrate=15220.6kbits/s speed=0.0581x    frame=  378 fps=8.1 q=33.0 size=    5035kB time=00:00:02.70 bitrate=15229.5kbits/s speed=0.0584x    frame=  383 fps=8.2 q=33.0 size=    5121kB time=00:00:02.75 bitrate=15255.9kbits/s speed=0.0586x    frame=  388 fps=8.2 q=33.0 size=    5218kB time=00:00:02.79 bitrate=15311.4kbits/s speed=0.0588x    frame=  393 fps=8.2 q=33.0 size=    5257kB time=00:00:02.83 bitrate=15200.0kbits/s speed=0.0589x    frame=  399 fps=8.2 q=33.0 size=    5328kB time=00:00:02.88 bitrate=15137.8kbits/s speed=0.0592x    frame=  405 fps=8.2 q=33.0 size=    5368kB time=00:00:02.93 bitrate=14990.6kbits/s speed=0.0595x    frame=  410 fps=8.2 q=32.0 size=    5402kB time=00:00:02.97 bitrate=14875.6kbits/s speed=0.0597x    frame=  415 fps=8.2 q=32.0 size=    5428kB time=00:00:03.01 bitrate=14740.6kbits/s speed=0.0599x    frame=  421 fps=8.3 q=32.0 size=    5458kB time=00:00:03.06 bitrate=14579.2kbits/s speed=0.0603x    frame=  426 fps=8.3 q=32.0 size=    5484kB time=00:00:03.10 bitrate=14453.8kbits/s speed=0.0605x    frame=  432 fps=8.3 q=32.0 size=    5513kB time=00:00:03.15 bitrate=14298.0kbits/s speed=0.0608x    frame=  437 fps=8.3 q=32.0 size=    5597kB time=00:00:03.20 bitrate=14329.1kbits/s speed=0.0609x    frame=  441 fps=8.3 q=32.0 size=    5654kB time=00:00:03.23 bitrate=14324.6kbits/s speed=0.061x    frame=  445 fps=8.3 q=32.0 size=    5714kB time=00:00:03.26 bitrate=14328.1kbits/s speed=0.0608x    frame=  449 fps=8.3 q=32.0 size=    5771kB time=00:00:03.30 bitrate=14325.4kbits/s speed=0.0609x    frame=  449 fps=7.8 q=-1.0 Lsize=    6372kB time=00:00:03.71 bitrate=14044.8kbits/s speed=0.0642x    
video:6368kB audio:0kB subtitle:0kB other streams:0kB global headers:0kB muxing overhead: 0.061631%
[libx264 @ 0x7fdefc801800] frame I:21    Avg QP:21.19  size: 49871
[libx264 @ 0x7fdefc801800] frame P:341   Avg QP:25.27  size: 15346
[libx264 @ 0x7fdefc801800] frame B:87    Avg QP:24.07  size:  2759
[libx264 @ 0x7fdefc801800] consecutive B-frames: 67.7% 18.7%  2.0% 11.6%
[libx264 @ 0x7fdefc801800] mb I  I16..4: 16.9% 68.1% 15.0%
[libx264 @ 0x7fdefc801800] mb P  I16..4:  1.4%  7.5%  1.2%  P16..4: 26.6%  5.2%  2.2%  0.0%  0.0%    skip:55.9%
[libx264 @ 0x7fdefc801800] mb B  I16..4:  0.1%  0.2%  0.1%  B16..8: 18.7%  0.8%  0.1%  direct: 0.2%  skip:79.8%  L0:45.6% L1:54.3% BI: 0.1%
[libx264 @ 0x7fdefc801800] final ratefactor: 20.71
[libx264 @ 0x7fdefc801800] 8x8 transform intra:71.8% inter:84.3%
[libx264 @ 0x7fdefc801800] coded y,uvDC,uvAC intra: 32.2% 14.5% 3.8% inter: 6.9% 0.9% 0.1%
[libx264 @ 0x7fdefc801800] i16 v,h,dc,p: 32% 52%  8%  8%
[libx264 @ 0x7fdefc801800] i8 v,h,dc,ddl,ddr,vr,hd,vl,hu: 19% 22% 38%  2%  3%  2%  7%  1%  6%
[libx264 @ 0x7fdefc801800] i4 v,h,dc,ddl,ddr,vr,hd,vl,hu: 16% 40% 20%  3%  4%  2%  9%  1%  6%
[libx264 @ 0x7fdefc801800] i8c dc,h,v,p: 77% 17%  6%  1%
[libx264 @ 0x7fdefc801800] Weighted P-Frames: Y:0.3% UV:0.3%
[libx264 @ 0x7fdefc801800] ref P L0: 65.3%  9.7% 16.5%  8.6%
[libx264 @ 0x7fdefc801800] ref B L0: 80.2% 19.4%  0.3%
[libx264 @ 0x7fdefc801800] ref B L1: 96.5%  3.5%
[libx264 @ 0x7fdefc801800] kb/s:13941.08
Exiting normally, received signal 2.
4001e00] i16 v,h,dc,p: 38% 50%  8%  4%
[libx264 @ 0x7f8894001e00] i8 v,h,dc,ddl,ddr,vr,hd,vl,hu: 30% 11% 55%  1%  1%  0%  1%  0%  1%
[libx264 @ 0x7f8894001e00] i4 v,h,dc,ddl,ddr,vr,hd,vl,hu: 45% 25% 23%  1%  2%  1%  1%  1%  1%
[libx264 @ 0x7f8894001e00] i8c dc,h,v,p: 88%  9%  3%  0%
[libx264 @ 0x7f8894001e00] Weighted P-Frames: Y:0.2% UV:0.2%
[libx264 @ 0x7f8894001e00] ref P L0: 52.7%  6.1% 27.3% 13.9%
[libx264 @ 0x7f8894001e00] ref B L0: 55.2% 41.7%  3.1%
[libx264 @ 0x7f8894001e00] ref B L1: 97.4%  2.6%
[libx264 @ 0x7f8894001e00] kb/s:1231.58
Exiting normally, received signal 2.
